<mxfile host="app.diagrams.net" modified="2023-12-04T02:48:05.805Z" agent="Mozilla/5.0 (Windows NT 10.0; Win64; x64) AppleWebKit/537.36 (KHTML, like Gecko) Chrome/119.0.0.0 Safari/537.36 Edg/119.0.0.0" etag="VxcYl8sO102-ItGDGRu2" version="22.1.5" type="github">
  <diagram name="第 1 页" id="sRS028VmoQ0yGFp0G40y">
    <mxGraphModel dx="2367" dy="693" grid="1" gridSize="10" guides="1" tooltips="1" connect="1" arrows="1" fold="1" page="1" pageScale="1" pageWidth="827" pageHeight="1169" math="0" shadow="0">
      <root>
        <mxCell id="0" />
        <mxCell id="1" parent="0" />
        <mxCell id="SltFPI3C_tlmVd0XEVFn-4" value="" style="whiteSpace=wrap;html=1;aspect=fixed;" parent="1" vertex="1">
          <mxGeometry x="-130" y="680" width="800" height="800" as="geometry" />
        </mxCell>
        <mxCell id="SltFPI3C_tlmVd0XEVFn-5" value="用户" style="shape=umlActor;verticalLabelPosition=bottom;verticalAlign=top;html=1;" parent="1" vertex="1">
          <mxGeometry x="-420" y="1000" width="110" height="190" as="geometry" />
        </mxCell>
        <mxCell id="SltFPI3C_tlmVd0XEVFn-7" value="&lt;p style=&quot;margin:0px;margin-top:4px;text-align:center;&quot;&gt;&lt;b&gt;&amp;lt;&amp;lt;FreeCAD&amp;gt;&amp;gt;&lt;/b&gt;&lt;/p&gt;&lt;hr size=&quot;1&quot;&gt;&lt;div style=&quot;height:2px;&quot;&gt;&lt;/div&gt;" style="verticalAlign=top;align=left;overflow=fill;fontSize=12;fontFamily=Helvetica;html=1;whiteSpace=wrap;" parent="1" vertex="1">
          <mxGeometry x="-110" y="585" width="140" height="60" as="geometry" />
        </mxCell>
        <mxCell id="SltFPI3C_tlmVd0XEVFn-9" value="HFMS系统" style="text;html=1;align=center;verticalAlign=middle;resizable=0;points=[];autosize=1;strokeColor=none;fillColor=none;" parent="1" vertex="1">
          <mxGeometry x="250" y="690" width="80" height="30" as="geometry" />
        </mxCell>
        <mxCell id="SltFPI3C_tlmVd0XEVFn-10" value="文件读取" style="ellipse;whiteSpace=wrap;html=1;" parent="1" vertex="1">
          <mxGeometry x="-50" y="870" width="140" height="70" as="geometry" />
        </mxCell>
        <mxCell id="SltFPI3C_tlmVd0XEVFn-11" value="FSCtd模型文件读取" style="ellipse;whiteSpace=wrap;html=1;" parent="1" vertex="1">
          <mxGeometry x="-100" y="745" width="120" height="80" as="geometry" />
        </mxCell>
        <mxCell id="SltFPI3C_tlmVd0XEVFn-12" value="本地系统模型文件读取" style="ellipse;whiteSpace=wrap;html=1;" parent="1" vertex="1">
          <mxGeometry x="40" y="745" width="120" height="80" as="geometry" />
        </mxCell>
        <mxCell id="SltFPI3C_tlmVd0XEVFn-13" value="" style="endArrow=block;endSize=16;endFill=0;html=1;rounded=0;entryX=0.5;entryY=0;entryDx=0;entryDy=0;exitX=0.5;exitY=1;exitDx=0;exitDy=0;" parent="1" source="SltFPI3C_tlmVd0XEVFn-12" target="SltFPI3C_tlmVd0XEVFn-10" edge="1">
          <mxGeometry width="160" relative="1" as="geometry">
            <mxPoint x="110" y="1080" as="sourcePoint" />
            <mxPoint x="31.21212121212102" y="950" as="targetPoint" />
          </mxGeometry>
        </mxCell>
        <mxCell id="SltFPI3C_tlmVd0XEVFn-14" value="" style="endArrow=block;endSize=16;endFill=0;html=1;rounded=0;entryX=0.5;entryY=0;entryDx=0;entryDy=0;exitX=0.5;exitY=1;exitDx=0;exitDy=0;" parent="1" source="SltFPI3C_tlmVd0XEVFn-11" target="SltFPI3C_tlmVd0XEVFn-10" edge="1">
          <mxGeometry width="160" relative="1" as="geometry">
            <mxPoint x="160" y="820" as="sourcePoint" />
            <mxPoint x="40" y="1000" as="targetPoint" />
          </mxGeometry>
        </mxCell>
        <mxCell id="SltFPI3C_tlmVd0XEVFn-15" value="建造模型" style="ellipse;whiteSpace=wrap;html=1;" parent="1" vertex="1">
          <mxGeometry x="-50" y="1190" width="140" height="70" as="geometry" />
        </mxCell>
        <mxCell id="SltFPI3C_tlmVd0XEVFn-16" value="模型编辑" style="ellipse;whiteSpace=wrap;html=1;" parent="1" vertex="1">
          <mxGeometry x="160" y="870" width="140" height="70" as="geometry" />
        </mxCell>
        <mxCell id="SltFPI3C_tlmVd0XEVFn-17" value="" style="endArrow=open;endFill=1;endSize=12;html=1;rounded=0;exitX=0;exitY=0.5;exitDx=0;exitDy=0;entryX=1;entryY=0.5;entryDx=0;entryDy=0;dashed=1;" parent="1" source="SltFPI3C_tlmVd0XEVFn-16" target="SltFPI3C_tlmVd0XEVFn-10" edge="1">
          <mxGeometry width="160" relative="1" as="geometry">
            <mxPoint x="290" y="858.46" as="sourcePoint" />
            <mxPoint x="450" y="858.46" as="targetPoint" />
          </mxGeometry>
        </mxCell>
        <mxCell id="SltFPI3C_tlmVd0XEVFn-18" value="&amp;lt;&amp;lt;extend&amp;gt;&amp;gt;" style="edgeLabel;html=1;align=center;verticalAlign=middle;resizable=0;points=[];" parent="SltFPI3C_tlmVd0XEVFn-17" vertex="1" connectable="0">
          <mxGeometry x="-0.3128" y="-2" relative="1" as="geometry">
            <mxPoint x="-9" y="-23" as="offset" />
          </mxGeometry>
        </mxCell>
        <mxCell id="SltFPI3C_tlmVd0XEVFn-22" value="模型文件保存" style="ellipse;whiteSpace=wrap;html=1;" parent="1" vertex="1">
          <mxGeometry x="-50" y="990" width="140" height="70" as="geometry" />
        </mxCell>
        <mxCell id="SltFPI3C_tlmVd0XEVFn-23" value="" style="endArrow=open;endFill=1;endSize=12;html=1;rounded=0;exitX=1;exitY=0;exitDx=0;exitDy=0;entryX=0.5;entryY=1;entryDx=0;entryDy=0;dashed=1;" parent="1" source="SltFPI3C_tlmVd0XEVFn-22" target="SltFPI3C_tlmVd0XEVFn-16" edge="1">
          <mxGeometry width="160" relative="1" as="geometry">
            <mxPoint x="200" y="1005" as="sourcePoint" />
            <mxPoint x="110" y="1005" as="targetPoint" />
          </mxGeometry>
        </mxCell>
        <mxCell id="SltFPI3C_tlmVd0XEVFn-24" value="&amp;lt;&amp;lt;extend&amp;gt;&amp;gt;" style="edgeLabel;html=1;align=center;verticalAlign=middle;resizable=0;points=[];" parent="SltFPI3C_tlmVd0XEVFn-23" vertex="1" connectable="0">
          <mxGeometry x="-0.3128" y="-2" relative="1" as="geometry">
            <mxPoint x="-9" y="-23" as="offset" />
          </mxGeometry>
        </mxCell>
        <mxCell id="SltFPI3C_tlmVd0XEVFn-25" value="" style="endArrow=open;endFill=1;endSize=12;html=1;rounded=0;exitX=0.5;exitY=1;exitDx=0;exitDy=0;dashed=1;" parent="1" source="SltFPI3C_tlmVd0XEVFn-22" target="SltFPI3C_tlmVd0XEVFn-15" edge="1">
          <mxGeometry width="160" relative="1" as="geometry">
            <mxPoint x="210" y="1015" as="sourcePoint" />
            <mxPoint x="120" y="1015" as="targetPoint" />
          </mxGeometry>
        </mxCell>
        <mxCell id="SltFPI3C_tlmVd0XEVFn-26" value="&amp;lt;&amp;lt;extend&amp;gt;&amp;gt;" style="edgeLabel;html=1;align=center;verticalAlign=middle;resizable=0;points=[];" parent="SltFPI3C_tlmVd0XEVFn-25" vertex="1" connectable="0">
          <mxGeometry x="-0.3128" y="-2" relative="1" as="geometry">
            <mxPoint x="32" y="-24" as="offset" />
          </mxGeometry>
        </mxCell>
        <mxCell id="SltFPI3C_tlmVd0XEVFn-27" value="特征建模" style="ellipse;whiteSpace=wrap;html=1;" parent="1" vertex="1">
          <mxGeometry x="110" y="1340" width="140" height="70" as="geometry" />
        </mxCell>
        <mxCell id="SltFPI3C_tlmVd0XEVFn-29" value="特征创建" style="ellipse;whiteSpace=wrap;html=1;" parent="1" vertex="1">
          <mxGeometry x="310" y="1330" width="140" height="70" as="geometry" />
        </mxCell>
        <mxCell id="SltFPI3C_tlmVd0XEVFn-30" value="特征编辑" style="ellipse;whiteSpace=wrap;html=1;" parent="1" vertex="1">
          <mxGeometry x="310" y="1410" width="140" height="70" as="geometry" />
        </mxCell>
        <mxCell id="SltFPI3C_tlmVd0XEVFn-39" value="约束添加" style="ellipse;whiteSpace=wrap;html=1;" parent="1" vertex="1">
          <mxGeometry x="420" y="930" width="140" height="70" as="geometry" />
        </mxCell>
        <mxCell id="SltFPI3C_tlmVd0XEVFn-40" value="图元绘制" style="ellipse;whiteSpace=wrap;html=1;" parent="1" vertex="1">
          <mxGeometry x="414" y="750" width="140" height="70" as="geometry" />
        </mxCell>
        <mxCell id="SltFPI3C_tlmVd0XEVFn-41" value="草图撤销/重做" style="ellipse;whiteSpace=wrap;html=1;" parent="1" vertex="1">
          <mxGeometry x="420" y="1099" width="140" height="70" as="geometry" />
        </mxCell>
        <mxCell id="SltFPI3C_tlmVd0XEVFn-45" value="绘制草图" style="ellipse;whiteSpace=wrap;html=1;" parent="1" vertex="1">
          <mxGeometry x="110" y="1080" width="140" height="70" as="geometry" />
        </mxCell>
        <mxCell id="SltFPI3C_tlmVd0XEVFn-47" value="场景管理" style="ellipse;whiteSpace=wrap;html=1;" parent="1" vertex="1">
          <mxGeometry x="310" y="1220" width="140" height="70" as="geometry" />
        </mxCell>
        <mxCell id="SltFPI3C_tlmVd0XEVFn-51" value="图元编辑" style="ellipse;whiteSpace=wrap;html=1;" parent="1" vertex="1">
          <mxGeometry x="420" y="840" width="140" height="70" as="geometry" />
        </mxCell>
        <mxCell id="SltFPI3C_tlmVd0XEVFn-59" value="约束编辑" style="ellipse;whiteSpace=wrap;html=1;" parent="1" vertex="1">
          <mxGeometry x="420" y="1010" width="140" height="70" as="geometry" />
        </mxCell>
        <mxCell id="SltFPI3C_tlmVd0XEVFn-66" value="" style="endArrow=open;endFill=1;endSize=12;html=1;rounded=0;exitX=1;exitY=0.5;exitDx=0;exitDy=0;dashed=1;entryX=0.002;entryY=0.661;entryDx=0;entryDy=0;entryPerimeter=0;" parent="1" source="SltFPI3C_tlmVd0XEVFn-15" target="SltFPI3C_tlmVd0XEVFn-45" edge="1">
          <mxGeometry width="160" relative="1" as="geometry">
            <mxPoint x="20" y="1110" as="sourcePoint" />
            <mxPoint x="20" y="1200" as="targetPoint" />
          </mxGeometry>
        </mxCell>
        <mxCell id="SltFPI3C_tlmVd0XEVFn-70" value="&amp;lt;&amp;lt;include&amp;gt;&amp;gt;" style="edgeLabel;html=1;align=center;verticalAlign=middle;resizable=0;points=[];" parent="SltFPI3C_tlmVd0XEVFn-66" vertex="1" connectable="0">
          <mxGeometry x="-0.0907" y="2" relative="1" as="geometry">
            <mxPoint x="-24" y="-15" as="offset" />
          </mxGeometry>
        </mxCell>
        <mxCell id="SltFPI3C_tlmVd0XEVFn-72" value="" style="endArrow=open;endFill=1;endSize=12;html=1;rounded=0;dashed=1;entryX=0;entryY=0.5;entryDx=0;entryDy=0;exitX=1;exitY=0.5;exitDx=0;exitDy=0;" parent="1" source="SltFPI3C_tlmVd0XEVFn-15" target="SltFPI3C_tlmVd0XEVFn-27" edge="1">
          <mxGeometry width="160" relative="1" as="geometry">
            <mxPoint x="80" y="1230" as="sourcePoint" />
            <mxPoint x="190" y="1116" as="targetPoint" />
          </mxGeometry>
        </mxCell>
        <mxCell id="SltFPI3C_tlmVd0XEVFn-73" value="&amp;lt;&amp;lt;include&amp;gt;&amp;gt;" style="edgeLabel;html=1;align=center;verticalAlign=middle;resizable=0;points=[];" parent="SltFPI3C_tlmVd0XEVFn-72" vertex="1" connectable="0">
          <mxGeometry x="-0.0907" y="2" relative="1" as="geometry">
            <mxPoint x="-37" y="8" as="offset" />
          </mxGeometry>
        </mxCell>
        <mxCell id="SltFPI3C_tlmVd0XEVFn-74" value="" style="endArrow=open;endFill=1;endSize=12;html=1;rounded=0;exitX=1;exitY=0.5;exitDx=0;exitDy=0;dashed=1;entryX=0;entryY=0.5;entryDx=0;entryDy=0;" parent="1" source="SltFPI3C_tlmVd0XEVFn-45" target="SltFPI3C_tlmVd0XEVFn-40" edge="1">
          <mxGeometry width="160" relative="1" as="geometry">
            <mxPoint x="100" y="1245" as="sourcePoint" />
            <mxPoint x="200" y="1126" as="targetPoint" />
          </mxGeometry>
        </mxCell>
        <mxCell id="SltFPI3C_tlmVd0XEVFn-75" value="&amp;lt;&amp;lt;include&amp;gt;&amp;gt;" style="edgeLabel;html=1;align=center;verticalAlign=middle;resizable=0;points=[];" parent="SltFPI3C_tlmVd0XEVFn-74" vertex="1" connectable="0">
          <mxGeometry x="-0.0907" y="2" relative="1" as="geometry">
            <mxPoint x="-24" y="-15" as="offset" />
          </mxGeometry>
        </mxCell>
        <mxCell id="SltFPI3C_tlmVd0XEVFn-76" value="" style="endArrow=open;endFill=1;endSize=12;html=1;rounded=0;dashed=1;entryX=0;entryY=0.5;entryDx=0;entryDy=0;exitX=1;exitY=0.5;exitDx=0;exitDy=0;" parent="1" source="SltFPI3C_tlmVd0XEVFn-45" target="SltFPI3C_tlmVd0XEVFn-51" edge="1">
          <mxGeometry width="160" relative="1" as="geometry">
            <mxPoint x="310" y="1030" as="sourcePoint" />
            <mxPoint x="614.74" y="786.95" as="targetPoint" />
          </mxGeometry>
        </mxCell>
        <mxCell id="SltFPI3C_tlmVd0XEVFn-77" value="&amp;lt;&amp;lt;include&amp;gt;&amp;gt;" style="edgeLabel;html=1;align=center;verticalAlign=middle;resizable=0;points=[];" parent="SltFPI3C_tlmVd0XEVFn-76" vertex="1" connectable="0">
          <mxGeometry x="-0.0907" y="2" relative="1" as="geometry">
            <mxPoint x="-24" y="-15" as="offset" />
          </mxGeometry>
        </mxCell>
        <mxCell id="SltFPI3C_tlmVd0XEVFn-78" value="" style="endArrow=open;endFill=1;endSize=12;html=1;rounded=0;exitX=1;exitY=0.5;exitDx=0;exitDy=0;dashed=1;entryX=0;entryY=0.5;entryDx=0;entryDy=0;" parent="1" source="SltFPI3C_tlmVd0XEVFn-45" target="SltFPI3C_tlmVd0XEVFn-39" edge="1">
          <mxGeometry width="160" relative="1" as="geometry">
            <mxPoint x="120" y="1265" as="sourcePoint" />
            <mxPoint x="220" y="1146" as="targetPoint" />
          </mxGeometry>
        </mxCell>
        <mxCell id="SltFPI3C_tlmVd0XEVFn-79" value="&amp;lt;&amp;lt;include&amp;gt;&amp;gt;" style="edgeLabel;html=1;align=center;verticalAlign=middle;resizable=0;points=[];" parent="SltFPI3C_tlmVd0XEVFn-78" vertex="1" connectable="0">
          <mxGeometry x="-0.0907" y="2" relative="1" as="geometry">
            <mxPoint x="-6" y="-28" as="offset" />
          </mxGeometry>
        </mxCell>
        <mxCell id="SltFPI3C_tlmVd0XEVFn-80" value="" style="endArrow=open;endFill=1;endSize=12;html=1;rounded=0;dashed=1;entryX=0;entryY=0.5;entryDx=0;entryDy=0;exitX=1;exitY=0.5;exitDx=0;exitDy=0;" parent="1" source="SltFPI3C_tlmVd0XEVFn-45" target="SltFPI3C_tlmVd0XEVFn-59" edge="1">
          <mxGeometry width="160" relative="1" as="geometry">
            <mxPoint x="310" y="1040" as="sourcePoint" />
            <mxPoint x="230" y="1156" as="targetPoint" />
          </mxGeometry>
        </mxCell>
        <mxCell id="SltFPI3C_tlmVd0XEVFn-81" value="&amp;lt;&amp;lt;include&amp;gt;&amp;gt;" style="edgeLabel;html=1;align=center;verticalAlign=middle;resizable=0;points=[];" parent="SltFPI3C_tlmVd0XEVFn-80" vertex="1" connectable="0">
          <mxGeometry x="-0.0907" y="2" relative="1" as="geometry">
            <mxPoint x="-7" y="-21" as="offset" />
          </mxGeometry>
        </mxCell>
        <mxCell id="SltFPI3C_tlmVd0XEVFn-82" value="" style="endArrow=open;endFill=1;endSize=12;html=1;rounded=0;dashed=1;entryX=0;entryY=0.5;entryDx=0;entryDy=0;exitX=1;exitY=0.5;exitDx=0;exitDy=0;" parent="1" source="SltFPI3C_tlmVd0XEVFn-45" target="SltFPI3C_tlmVd0XEVFn-41" edge="1">
          <mxGeometry width="160" relative="1" as="geometry">
            <mxPoint x="140" y="1285" as="sourcePoint" />
            <mxPoint x="240" y="1166" as="targetPoint" />
          </mxGeometry>
        </mxCell>
        <mxCell id="SltFPI3C_tlmVd0XEVFn-83" value="&amp;lt;&amp;lt;include&amp;gt;&amp;gt;" style="edgeLabel;html=1;align=center;verticalAlign=middle;resizable=0;points=[];" parent="SltFPI3C_tlmVd0XEVFn-82" vertex="1" connectable="0">
          <mxGeometry x="-0.0907" y="2" relative="1" as="geometry">
            <mxPoint x="-39" y="21" as="offset" />
          </mxGeometry>
        </mxCell>
        <mxCell id="SltFPI3C_tlmVd0XEVFn-84" value="" style="endArrow=open;endFill=1;endSize=12;html=1;rounded=0;exitX=1;exitY=0.5;exitDx=0;exitDy=0;dashed=1;entryX=0;entryY=0.5;entryDx=0;entryDy=0;" parent="1" source="SltFPI3C_tlmVd0XEVFn-27" target="SltFPI3C_tlmVd0XEVFn-47" edge="1">
          <mxGeometry width="160" relative="1" as="geometry">
            <mxPoint x="150" y="1295" as="sourcePoint" />
            <mxPoint x="250" y="1176" as="targetPoint" />
          </mxGeometry>
        </mxCell>
        <mxCell id="SltFPI3C_tlmVd0XEVFn-85" value="&amp;lt;&amp;lt;include&amp;gt;&amp;gt;" style="edgeLabel;html=1;align=center;verticalAlign=middle;resizable=0;points=[];" parent="SltFPI3C_tlmVd0XEVFn-84" vertex="1" connectable="0">
          <mxGeometry x="-0.0907" y="2" relative="1" as="geometry">
            <mxPoint x="-34" y="-15" as="offset" />
          </mxGeometry>
        </mxCell>
        <mxCell id="SltFPI3C_tlmVd0XEVFn-86" value="" style="endArrow=open;endFill=1;endSize=12;html=1;rounded=0;dashed=1;entryX=0;entryY=0.5;entryDx=0;entryDy=0;exitX=1;exitY=0.5;exitDx=0;exitDy=0;" parent="1" source="SltFPI3C_tlmVd0XEVFn-27" target="SltFPI3C_tlmVd0XEVFn-29" edge="1">
          <mxGeometry width="160" relative="1" as="geometry">
            <mxPoint x="310" y="1340" as="sourcePoint" />
            <mxPoint x="260" y="1186" as="targetPoint" />
          </mxGeometry>
        </mxCell>
        <mxCell id="SltFPI3C_tlmVd0XEVFn-87" value="&amp;lt;&amp;lt;include&amp;gt;&amp;gt;" style="edgeLabel;html=1;align=center;verticalAlign=middle;resizable=0;points=[];" parent="SltFPI3C_tlmVd0XEVFn-86" vertex="1" connectable="0">
          <mxGeometry x="-0.0907" y="2" relative="1" as="geometry">
            <mxPoint x="7" y="-15" as="offset" />
          </mxGeometry>
        </mxCell>
        <mxCell id="SltFPI3C_tlmVd0XEVFn-88" value="" style="endArrow=open;endFill=1;endSize=12;html=1;rounded=0;dashed=1;entryX=0;entryY=0.5;entryDx=0;entryDy=0;exitX=1;exitY=0.5;exitDx=0;exitDy=0;" parent="1" source="SltFPI3C_tlmVd0XEVFn-27" target="SltFPI3C_tlmVd0XEVFn-30" edge="1">
          <mxGeometry width="160" relative="1" as="geometry">
            <mxPoint x="320" y="1330" as="sourcePoint" />
            <mxPoint x="270" y="1196" as="targetPoint" />
          </mxGeometry>
        </mxCell>
        <mxCell id="SltFPI3C_tlmVd0XEVFn-89" value="&amp;lt;&amp;lt;include&amp;gt;&amp;gt;" style="edgeLabel;html=1;align=center;verticalAlign=middle;resizable=0;points=[];" parent="SltFPI3C_tlmVd0XEVFn-88" vertex="1" connectable="0">
          <mxGeometry x="-0.0907" y="2" relative="1" as="geometry">
            <mxPoint x="-34" y="8" as="offset" />
          </mxGeometry>
        </mxCell>
        <mxCell id="SltFPI3C_tlmVd0XEVFn-96" value="" style="endArrow=none;html=1;rounded=0;exitX=1;exitY=0.3333333333333333;exitDx=0;exitDy=0;exitPerimeter=0;entryX=0;entryY=0.5;entryDx=0;entryDy=0;" parent="1" source="SltFPI3C_tlmVd0XEVFn-5" target="SltFPI3C_tlmVd0XEVFn-10" edge="1">
          <mxGeometry width="50" height="50" relative="1" as="geometry">
            <mxPoint x="-290" y="1010" as="sourcePoint" />
            <mxPoint x="-240" y="960" as="targetPoint" />
          </mxGeometry>
        </mxCell>
        <mxCell id="SltFPI3C_tlmVd0XEVFn-98" value="" style="endArrow=none;html=1;rounded=0;exitX=1;exitY=0.3333333333333333;exitDx=0;exitDy=0;exitPerimeter=0;entryX=0;entryY=0.5;entryDx=0;entryDy=0;" parent="1" source="SltFPI3C_tlmVd0XEVFn-5" target="SltFPI3C_tlmVd0XEVFn-15" edge="1">
          <mxGeometry width="50" height="50" relative="1" as="geometry">
            <mxPoint x="-250" y="1250" as="sourcePoint" />
            <mxPoint x="-200" y="1200" as="targetPoint" />
          </mxGeometry>
        </mxCell>
        <mxCell id="SltFPI3C_tlmVd0XEVFn-99" value="" style="endArrow=none;dashed=1;html=1;dashPattern=1 3;strokeWidth=2;rounded=0;entryX=0;entryY=0.5;entryDx=0;entryDy=0;entryPerimeter=0;" parent="1" target="SltFPI3C_tlmVd0XEVFn-100" edge="1">
          <mxGeometry width="50" height="50" relative="1" as="geometry">
            <mxPoint x="330" y="705" as="sourcePoint" />
            <mxPoint x="710" y="705" as="targetPoint" />
          </mxGeometry>
        </mxCell>
        <mxCell id="SltFPI3C_tlmVd0XEVFn-100" value="系统名称" style="shape=note;whiteSpace=wrap;html=1;backgroundOutline=1;darkOpacity=0.05;" parent="1" vertex="1">
          <mxGeometry x="720" y="680" width="130" height="55" as="geometry" />
        </mxCell>
        <mxCell id="SltFPI3C_tlmVd0XEVFn-101" value="" style="endArrow=none;dashed=1;html=1;dashPattern=1 3;strokeWidth=2;rounded=0;entryX=1.003;entryY=0.949;entryDx=0;entryDy=0;entryPerimeter=0;" parent="1" target="SltFPI3C_tlmVd0XEVFn-4" edge="1">
          <mxGeometry width="50" height="50" relative="1" as="geometry">
            <mxPoint x="720" y="1439" as="sourcePoint" />
            <mxPoint x="790" y="1330" as="targetPoint" />
          </mxGeometry>
        </mxCell>
        <mxCell id="SltFPI3C_tlmVd0XEVFn-102" value="系统边界" style="shape=note;whiteSpace=wrap;html=1;backgroundOutline=1;darkOpacity=0.05;" parent="1" vertex="1">
          <mxGeometry x="720" y="1410" width="130" height="55" as="geometry" />
        </mxCell>
        <mxCell id="SltFPI3C_tlmVd0XEVFn-103" value="" style="endArrow=none;dashed=1;html=1;dashPattern=1 3;strokeWidth=2;rounded=0;exitX=1;exitY=0.5;exitDx=0;exitDy=0;entryX=0;entryY=0.5;entryDx=0;entryDy=0;entryPerimeter=0;" parent="1" source="SltFPI3C_tlmVd0XEVFn-59" target="SltFPI3C_tlmVd0XEVFn-104" edge="1">
          <mxGeometry width="50" height="50" relative="1" as="geometry">
            <mxPoint x="810" y="1110" as="sourcePoint" />
            <mxPoint x="720" y="1040" as="targetPoint" />
          </mxGeometry>
        </mxCell>
        <mxCell id="SltFPI3C_tlmVd0XEVFn-104" value="用例" style="shape=note;whiteSpace=wrap;html=1;backgroundOutline=1;darkOpacity=0.05;" parent="1" vertex="1">
          <mxGeometry x="720" y="1017.5" width="130" height="55" as="geometry" />
        </mxCell>
        <mxCell id="SltFPI3C_tlmVd0XEVFn-106" value="拓扑元素命名与辨识" style="ellipse;whiteSpace=wrap;html=1;" parent="1" vertex="1">
          <mxGeometry x="520" y="1330" width="140" height="70" as="geometry" />
        </mxCell>
        <mxCell id="SltFPI3C_tlmVd0XEVFn-107" value="" style="endArrow=open;endFill=1;endSize=12;html=1;rounded=0;dashed=1;entryX=0;entryY=0.5;entryDx=0;entryDy=0;exitX=1;exitY=0.5;exitDx=0;exitDy=0;" parent="1" source="SltFPI3C_tlmVd0XEVFn-29" target="SltFPI3C_tlmVd0XEVFn-106" edge="1">
          <mxGeometry width="160" relative="1" as="geometry">
            <mxPoint x="260" y="1385" as="sourcePoint" />
            <mxPoint x="320" y="1375" as="targetPoint" />
          </mxGeometry>
        </mxCell>
        <mxCell id="SltFPI3C_tlmVd0XEVFn-108" value="&amp;lt;&amp;lt;include&amp;gt;&amp;gt;" style="edgeLabel;html=1;align=center;verticalAlign=middle;resizable=0;points=[];" parent="SltFPI3C_tlmVd0XEVFn-107" vertex="1" connectable="0">
          <mxGeometry x="-0.0907" y="2" relative="1" as="geometry">
            <mxPoint x="7" y="-15" as="offset" />
          </mxGeometry>
        </mxCell>
        <mxCell id="SltFPI3C_tlmVd0XEVFn-110" value="" style="endArrow=none;html=1;rounded=0;entryX=0.5;entryY=1;entryDx=0;entryDy=0;" parent="1" source="SltFPI3C_tlmVd0XEVFn-11" target="SltFPI3C_tlmVd0XEVFn-7" edge="1">
          <mxGeometry width="50" height="50" relative="1" as="geometry">
            <mxPoint x="-290" y="850" as="sourcePoint" />
            <mxPoint x="-240" y="800" as="targetPoint" />
          </mxGeometry>
        </mxCell>
        <mxCell id="rhK3O9hikjB4_-ZIOAnn-2" value="" style="endArrow=open;endFill=1;endSize=12;html=1;rounded=0;exitX=0;exitY=0;exitDx=0;exitDy=0;entryX=0;entryY=1;entryDx=0;entryDy=0;dashed=1;" edge="1" parent="1" source="SltFPI3C_tlmVd0XEVFn-15" target="SltFPI3C_tlmVd0XEVFn-10">
          <mxGeometry width="160" relative="1" as="geometry">
            <mxPoint x="80" y="1011" as="sourcePoint" />
            <mxPoint x="240" y="950" as="targetPoint" />
          </mxGeometry>
        </mxCell>
        <mxCell id="rhK3O9hikjB4_-ZIOAnn-3" value="&amp;lt;&amp;lt;extend&amp;gt;&amp;gt;" style="edgeLabel;html=1;align=center;verticalAlign=middle;resizable=0;points=[];" vertex="1" connectable="0" parent="rhK3O9hikjB4_-ZIOAnn-2">
          <mxGeometry x="-0.3128" y="-2" relative="1" as="geometry">
            <mxPoint x="-32" y="-9" as="offset" />
          </mxGeometry>
        </mxCell>
        <mxCell id="rhK3O9hikjB4_-ZIOAnn-4" value="" style="endArrow=open;endFill=1;endSize=12;html=1;rounded=0;dashed=1;exitX=1;exitY=0;exitDx=0;exitDy=0;entryX=0;entryY=1;entryDx=0;entryDy=0;" edge="1" parent="1" source="SltFPI3C_tlmVd0XEVFn-30" target="SltFPI3C_tlmVd0XEVFn-106">
          <mxGeometry width="160" relative="1" as="geometry">
            <mxPoint x="460" y="1375" as="sourcePoint" />
            <mxPoint x="530" y="1375" as="targetPoint" />
          </mxGeometry>
        </mxCell>
        <mxCell id="rhK3O9hikjB4_-ZIOAnn-5" value="&amp;lt;&amp;lt;include&amp;gt;&amp;gt;" style="edgeLabel;html=1;align=center;verticalAlign=middle;resizable=0;points=[];" vertex="1" connectable="0" parent="rhK3O9hikjB4_-ZIOAnn-4">
          <mxGeometry x="-0.0907" y="2" relative="1" as="geometry">
            <mxPoint x="15" y="12" as="offset" />
          </mxGeometry>
        </mxCell>
      </root>
    </mxGraphModel>
  </diagram>
</mxfile>
